<mxfile host="app.diagrams.net" modified="2022-06-28T04:16:17.375Z" agent="5.0 (Windows NT 10.0; Win64; x64) AppleWebKit/537.36 (KHTML, like Gecko) Chrome/103.0.0.0 Safari/537.36" etag="UTPu-q6z18Xby2a7HNsr" version="20.0.3" type="github">
  <diagram id="fNGUZIDd2iOD8gpRbE6t" name="Page-1">
    <mxGraphModel dx="1887" dy="531" grid="1" gridSize="10" guides="1" tooltips="1" connect="1" arrows="1" fold="1" page="1" pageScale="1" pageWidth="850" pageHeight="1100" math="0" shadow="0">
      <root>
        <mxCell id="0" />
        <mxCell id="1" parent="0" />
        <mxCell id="YUcT1qdiRyiunFSedpXq-1" value="Bike_details" style="swimlane;startSize=60;fontSize=19;fillColor=#0050ef;fontColor=#ffffff;strokeColor=#001DBC;" vertex="1" parent="1">
          <mxGeometry x="310" y="360" width="200" height="200" as="geometry" />
        </mxCell>
        <mxCell id="YUcT1qdiRyiunFSedpXq-29" value="Bike_name" style="text;html=1;align=center;verticalAlign=middle;resizable=0;points=[];autosize=1;strokeColor=none;fillColor=none;fontSize=19;" vertex="1" parent="YUcT1qdiRyiunFSedpXq-1">
          <mxGeometry x="15" y="80" width="120" height="40" as="geometry" />
        </mxCell>
        <mxCell id="YUcT1qdiRyiunFSedpXq-30" value="Bike_color" style="text;html=1;align=center;verticalAlign=middle;resizable=0;points=[];autosize=1;strokeColor=none;fillColor=none;fontSize=19;" vertex="1" parent="YUcT1qdiRyiunFSedpXq-1">
          <mxGeometry x="15" y="100" width="110" height="40" as="geometry" />
        </mxCell>
        <mxCell id="YUcT1qdiRyiunFSedpXq-31" value="Bike_no" style="text;html=1;align=center;verticalAlign=middle;resizable=0;points=[];autosize=1;strokeColor=none;fillColor=none;fontSize=19;" vertex="1" parent="YUcT1qdiRyiunFSedpXq-1">
          <mxGeometry x="15" y="120" width="90" height="40" as="geometry" />
        </mxCell>
        <mxCell id="YUcT1qdiRyiunFSedpXq-32" value="Bike_price" style="text;html=1;align=center;verticalAlign=middle;resizable=0;points=[];autosize=1;strokeColor=none;fillColor=none;fontSize=19;" vertex="1" parent="YUcT1qdiRyiunFSedpXq-1">
          <mxGeometry x="15" y="140" width="110" height="40" as="geometry" />
        </mxCell>
        <mxCell id="YUcT1qdiRyiunFSedpXq-36" value="" style="sketch=0;pointerEvents=1;shadow=0;dashed=0;html=1;strokeColor=none;labelPosition=center;verticalLabelPosition=bottom;verticalAlign=top;outlineConnect=0;align=center;shape=mxgraph.office.security.key_permissions;fillColor=#DA4026;fontSize=19;direction=south;" vertex="1" parent="YUcT1qdiRyiunFSedpXq-1">
          <mxGeometry x="150" y="70" width="34" height="20" as="geometry" />
        </mxCell>
        <mxCell id="YUcT1qdiRyiunFSedpXq-2" value="Seller_details" style="swimlane;startSize=60;fontSize=18;fillColor=#0050ef;fontColor=#ffffff;strokeColor=#001DBC;" vertex="1" parent="1">
          <mxGeometry x="-60" y="240" width="200" height="200" as="geometry" />
        </mxCell>
        <mxCell id="YUcT1qdiRyiunFSedpXq-22" value="Seller_name" style="text;html=1;align=center;verticalAlign=middle;resizable=0;points=[];autosize=1;strokeColor=none;fillColor=none;fontSize=19;" vertex="1" parent="YUcT1qdiRyiunFSedpXq-2">
          <mxGeometry x="30" y="90" width="130" height="40" as="geometry" />
        </mxCell>
        <mxCell id="YUcT1qdiRyiunFSedpXq-18" value="Seller_id" style="text;html=1;align=center;verticalAlign=middle;resizable=0;points=[];autosize=1;strokeColor=none;fillColor=none;fontSize=19;" vertex="1" parent="YUcT1qdiRyiunFSedpXq-2">
          <mxGeometry x="30" y="120" width="100" height="40" as="geometry" />
        </mxCell>
        <mxCell id="YUcT1qdiRyiunFSedpXq-19" value="Bike_id" style="text;html=1;align=center;verticalAlign=middle;resizable=0;points=[];autosize=1;strokeColor=none;fillColor=none;fontSize=19;" vertex="1" parent="YUcT1qdiRyiunFSedpXq-2">
          <mxGeometry x="30" y="150" width="90" height="40" as="geometry" />
        </mxCell>
        <mxCell id="YUcT1qdiRyiunFSedpXq-34" value="" style="sketch=0;pointerEvents=1;shadow=0;dashed=0;html=1;strokeColor=none;labelPosition=center;verticalLabelPosition=bottom;verticalAlign=top;outlineConnect=0;align=center;shape=mxgraph.office.security.key_permissions;fillColor=#DA4026;fontSize=19;direction=south;" vertex="1" parent="YUcT1qdiRyiunFSedpXq-2">
          <mxGeometry x="160" y="70" width="34" height="20" as="geometry" />
        </mxCell>
        <mxCell id="YUcT1qdiRyiunFSedpXq-3" value="Buyer_details" style="swimlane;startSize=60;fontSize=18;fillColor=#0050ef;fontColor=#ffffff;strokeColor=#001DBC;" vertex="1" parent="1">
          <mxGeometry x="600" y="240" width="200" height="230" as="geometry" />
        </mxCell>
        <mxCell id="YUcT1qdiRyiunFSedpXq-26" value="Buyer_Mob" style="text;html=1;align=center;verticalAlign=middle;resizable=0;points=[];autosize=1;strokeColor=none;fillColor=none;fontSize=19;" vertex="1" parent="YUcT1qdiRyiunFSedpXq-3">
          <mxGeometry x="10" y="140" width="120" height="40" as="geometry" />
        </mxCell>
        <mxCell id="YUcT1qdiRyiunFSedpXq-27" value="Bike_id" style="text;html=1;align=center;verticalAlign=middle;resizable=0;points=[];autosize=1;strokeColor=none;fillColor=none;fontSize=19;" vertex="1" parent="YUcT1qdiRyiunFSedpXq-3">
          <mxGeometry x="10" y="170" width="90" height="40" as="geometry" />
        </mxCell>
        <mxCell id="YUcT1qdiRyiunFSedpXq-35" value="" style="sketch=0;pointerEvents=1;shadow=0;dashed=0;html=1;strokeColor=none;labelPosition=center;verticalLabelPosition=bottom;verticalAlign=top;outlineConnect=0;align=center;shape=mxgraph.office.security.key_permissions;fillColor=#DA4026;fontSize=19;direction=south;" vertex="1" parent="YUcT1qdiRyiunFSedpXq-3">
          <mxGeometry x="150" y="70" width="34" height="20" as="geometry" />
        </mxCell>
        <mxCell id="YUcT1qdiRyiunFSedpXq-4" value="Admin" style="swimlane;startSize=60;fontSize=19;fillColor=#0050ef;fontColor=#ffffff;strokeColor=#001DBC;" vertex="1" parent="1">
          <mxGeometry x="320" width="200" height="230" as="geometry" />
        </mxCell>
        <mxCell id="YUcT1qdiRyiunFSedpXq-12" value="Admin_name" style="text;html=1;align=center;verticalAlign=middle;resizable=0;points=[];autosize=1;strokeColor=none;fillColor=none;fontSize=19;" vertex="1" parent="YUcT1qdiRyiunFSedpXq-4">
          <mxGeometry x="20" y="90" width="140" height="40" as="geometry" />
        </mxCell>
        <mxCell id="YUcT1qdiRyiunFSedpXq-13" value="Address" style="text;html=1;align=center;verticalAlign=middle;resizable=0;points=[];autosize=1;strokeColor=none;fillColor=none;fontSize=19;" vertex="1" parent="YUcT1qdiRyiunFSedpXq-4">
          <mxGeometry x="30" y="120" width="90" height="40" as="geometry" />
        </mxCell>
        <mxCell id="YUcT1qdiRyiunFSedpXq-15" value="Buyer_id" style="text;html=1;align=center;verticalAlign=middle;resizable=0;points=[];autosize=1;strokeColor=none;fillColor=none;fontSize=19;" vertex="1" parent="YUcT1qdiRyiunFSedpXq-4">
          <mxGeometry x="30" y="150" width="100" height="40" as="geometry" />
        </mxCell>
        <mxCell id="YUcT1qdiRyiunFSedpXq-14" value="Seller_id" style="text;html=1;align=center;verticalAlign=middle;resizable=0;points=[];autosize=1;strokeColor=none;fillColor=none;fontSize=19;" vertex="1" parent="YUcT1qdiRyiunFSedpXq-4">
          <mxGeometry x="30" y="180" width="100" height="40" as="geometry" />
        </mxCell>
        <mxCell id="YUcT1qdiRyiunFSedpXq-37" value="" style="sketch=0;pointerEvents=1;shadow=0;dashed=0;html=1;strokeColor=none;labelPosition=center;verticalLabelPosition=bottom;verticalAlign=top;outlineConnect=0;align=center;shape=mxgraph.office.security.key_permissions;fillColor=#DA4026;fontSize=19;direction=south;" vertex="1" parent="YUcT1qdiRyiunFSedpXq-4">
          <mxGeometry x="160" y="70" width="34" height="20" as="geometry" />
        </mxCell>
        <mxCell id="YUcT1qdiRyiunFSedpXq-6" value="" style="endArrow=classic;startArrow=classic;html=1;rounded=0;fontSize=19;exitX=0.5;exitY=0;exitDx=0;exitDy=0;" edge="1" parent="1" source="YUcT1qdiRyiunFSedpXq-2">
          <mxGeometry width="50" height="50" relative="1" as="geometry">
            <mxPoint x="270" y="150" as="sourcePoint" />
            <mxPoint x="320" y="100" as="targetPoint" />
          </mxGeometry>
        </mxCell>
        <mxCell id="YUcT1qdiRyiunFSedpXq-7" value="" style="endArrow=classic;startArrow=classic;html=1;rounded=0;fontSize=19;entryX=0.5;entryY=0;entryDx=0;entryDy=0;" edge="1" parent="1" target="YUcT1qdiRyiunFSedpXq-3">
          <mxGeometry width="50" height="50" relative="1" as="geometry">
            <mxPoint x="520" y="150" as="sourcePoint" />
            <mxPoint x="570" y="100" as="targetPoint" />
          </mxGeometry>
        </mxCell>
        <mxCell id="YUcT1qdiRyiunFSedpXq-8" value="" style="endArrow=classic;startArrow=classic;html=1;rounded=0;fontSize=19;entryX=0;entryY=0.75;entryDx=0;entryDy=0;" edge="1" parent="1" target="YUcT1qdiRyiunFSedpXq-1">
          <mxGeometry width="50" height="50" relative="1" as="geometry">
            <mxPoint x="140" y="370" as="sourcePoint" />
            <mxPoint x="190" y="320" as="targetPoint" />
          </mxGeometry>
        </mxCell>
        <mxCell id="YUcT1qdiRyiunFSedpXq-10" value="" style="endArrow=classic;startArrow=classic;html=1;rounded=0;fontSize=19;" edge="1" parent="1">
          <mxGeometry width="50" height="50" relative="1" as="geometry">
            <mxPoint x="510" y="480" as="sourcePoint" />
            <mxPoint x="600" y="370" as="targetPoint" />
          </mxGeometry>
        </mxCell>
        <mxCell id="YUcT1qdiRyiunFSedpXq-11" value="Admin_id" style="text;html=1;align=center;verticalAlign=middle;resizable=0;points=[];autosize=1;strokeColor=none;fillColor=none;fontSize=19;" vertex="1" parent="1">
          <mxGeometry x="350" y="60" width="100" height="40" as="geometry" />
        </mxCell>
        <mxCell id="YUcT1qdiRyiunFSedpXq-16" value="Seller_id" style="text;html=1;align=center;verticalAlign=middle;resizable=0;points=[];autosize=1;strokeColor=none;fillColor=none;fontSize=19;" vertex="1" parent="1">
          <mxGeometry x="-30" y="300" width="100" height="40" as="geometry" />
        </mxCell>
        <mxCell id="YUcT1qdiRyiunFSedpXq-23" value="Buyer_id" style="text;html=1;align=center;verticalAlign=middle;resizable=0;points=[];autosize=1;strokeColor=none;fillColor=none;fontSize=19;" vertex="1" parent="1">
          <mxGeometry x="610" y="300" width="100" height="40" as="geometry" />
        </mxCell>
        <mxCell id="YUcT1qdiRyiunFSedpXq-24" value="Buyer_name" style="text;html=1;align=center;verticalAlign=middle;resizable=0;points=[];autosize=1;strokeColor=none;fillColor=none;fontSize=19;" vertex="1" parent="1">
          <mxGeometry x="610" y="320" width="130" height="40" as="geometry" />
        </mxCell>
        <mxCell id="YUcT1qdiRyiunFSedpXq-25" value="Buyer_address" style="text;html=1;align=center;verticalAlign=middle;resizable=0;points=[];autosize=1;strokeColor=none;fillColor=none;fontSize=19;" vertex="1" parent="1">
          <mxGeometry x="610" y="350" width="150" height="40" as="geometry" />
        </mxCell>
        <mxCell id="YUcT1qdiRyiunFSedpXq-28" value="Bike_id" style="text;html=1;align=center;verticalAlign=middle;resizable=0;points=[];autosize=1;strokeColor=none;fillColor=none;fontSize=19;" vertex="1" parent="1">
          <mxGeometry x="325" y="420" width="90" height="40" as="geometry" />
        </mxCell>
      </root>
    </mxGraphModel>
  </diagram>
</mxfile>
